<svg width="135.000000" height="40.000000" viewBox="0 0 135 40" fill="none" xmlns="http://www.w3.org/2000/svg" xmlns:xlink="http://www.w3.org/1999/xlink">
	<desc>
			Created with Pixso.
	</desc>
	<defs>
		<clipPath id="clip2_274">
			<rect id="Download Badge / App Store Badge" width="135.000000" height="40.000000" fill="white" fill-opacity="0"/>
		</clipPath>
	</defs>
	<rect id="Download Badge / App Store Badge" width="135.000000" height="40.000000" fill="#FFFFFF" fill-opacity="0"/>
	<g clip-path="url(#clip2_274)">
		<path id="Vector" d="M124.249 -3.05176e-05L10.7567 -3.05176e-05C10.343 -3.05176e-05 9.9342 -3.05176e-05 9.52161 0.00198364C9.17621 0.00396729 8.83356 0.00979614 8.48486 0.014679C7.72736 0.022583 6.97156 0.081665 6.22418 0.191376C5.47778 0.303497 4.75482 0.514893 4.07965 0.81839C3.40533 1.12445 2.78918 1.52216 2.2536 1.99704C1.71515 2.47061 1.2663 3.01801 0.924377 3.61813C0.581482 4.21707 0.343689 4.85892 0.219238 5.52145C0.0936279 6.18317 0.026062 6.85251 0.0170898 7.52347C0.0065918 7.83005 0.00549316 8.13766 0 8.44431L0 31.5586C0.00549316 31.8691 0.0065918 32.1699 0.0170898 32.4805C0.026062 33.1514 0.0936279 33.8207 0.219238 34.4824C0.343323 35.1453 0.581116 35.7875 0.924377 36.3867C1.26617 36.9849 1.71503 37.5301 2.2536 38.001C2.78717 38.478 3.40369 38.8759 4.07965 39.1797C4.75482 39.484 5.47772 39.6966 6.22418 39.8105C6.97168 39.9193 7.72736 39.9784 8.48486 39.9873C8.83356 39.9941 9.17621 39.998 9.52161 39.998C9.9342 40 10.343 40 10.7567 40L124.249 40C124.655 40 125.067 40 125.472 39.998C125.816 39.998 126.169 39.9941 126.512 39.9873C127.268 39.9789 128.023 39.9198 128.769 39.8105C129.518 39.6958 130.243 39.4832 130.922 39.1797C131.597 38.8758 132.213 38.4778 132.746 38.001C133.283 37.5282 133.733 36.9834 134.079 36.3867C134.42 35.7871 134.655 35.1449 134.777 34.4824C134.903 33.8206 134.973 33.1515 134.987 32.4805C134.991 32.1699 134.991 31.8691 134.991 31.5586C135 31.1953 135 30.834 135 30.4648L135 9.5361C135 9.16989 135 8.80661 134.991 8.44431C134.991 8.13766 134.991 7.83005 134.987 7.52341C134.973 6.85239 134.903 6.18323 134.777 5.52142C134.655 4.85925 134.419 4.21747 134.079 3.6181C133.383 2.41516 132.278 1.436 130.922 0.818298C130.243 0.515533 129.518 0.30423 128.769 0.191284C128.023 0.0810852 127.269 0.0219727 126.512 0.0145264C126.169 0.00964355 125.816 0.00378418 125.472 0.00186157C125.067 -0.000152588 124.655 -0.000152588 124.249 -0.000152588L124.249 -3.05176e-05Z" fill="#A6A6A6" fill-opacity="1.000000" fill-rule="nonzero"/>
		<path id="Vector" d="M9.42999 39.128C9.08569 39.128 8.74969 39.1241 8.40808 39.1173C7.70038 39.1091 6.99432 39.0546 6.29572 38.9542C5.64435 38.8549 5.01331 38.6702 4.42346 38.4062C3.83899 38.1443 3.30597 37.801 2.84467 37.3893C2.37677 36.9825 1.98718 36.5107 1.69141 35.9925C1.39233 35.471 1.18542 34.912 1.07776 34.335C0.961487 33.715 0.898621 33.088 0.889587 32.4596C0.882446 32.2487 0.873047 31.5463 0.873047 31.5463L0.873047 8.44092C0.873047 8.44092 0.883057 7.74936 0.889648 7.5462C0.898254 6.91873 0.960815 6.29279 1.07672 5.67374C1.18457 5.09512 1.39166 4.53452 1.69086 4.01129C1.9856 3.4935 2.37299 3.0213 2.83807 2.61304C3.30267 2.2009 3.83746 1.8558 4.42291 1.59036C5.01141 1.32718 5.64124 1.1438 6.29132 1.0463C6.99219 0.944855 7.70068 0.889984 8.41083 0.882202L9.43054 0.869995L125.57 0.869995L126.602 0.88269C127.306 0.890106 128.008 0.944458 128.702 1.04532C129.359 1.14401 129.995 1.3287 130.59 1.59329C131.763 2.12823 132.718 2.97461 133.32 4.01373C133.614 4.53333 133.818 5.08939 133.924 5.66299C134.042 6.28711 134.107 6.918 134.121 7.5506C134.124 7.83386 134.124 8.13812 134.124 8.44092C134.133 8.81601 134.133 9.173 134.133 9.53293L134.133 30.466C134.133 30.8293 134.133 31.1839 134.124 31.5414C134.124 31.8667 134.124 32.1646 134.12 32.4713C134.107 33.0926 134.042 33.7122 133.927 34.3252C133.821 34.9064 133.615 35.4698 133.316 35.9955C133.018 36.5081 132.631 36.9758 132.169 37.3815C131.707 37.7954 131.173 38.1407 130.587 38.4042C129.994 38.6703 129.358 38.8557 128.702 38.9542C128.004 39.0551 127.297 39.1097 126.59 39.1173C126.259 39.1241 125.912 39.128 125.576 39.128L124.351 39.13L9.42999 39.128Z" fill="#000000" fill-opacity="1.000000" fill-rule="nonzero"/>
		<path id="&lt;Path&gt;" d="M32.7973 20.3007C32.808 19.466 33.0298 18.6476 33.4418 17.9217C33.8538 17.1957 34.4427 16.5858 35.1539 16.1486C34.7021 15.5034 34.1062 14.9725 33.4134 14.598C32.7205 14.2234 31.9499 14.0156 31.1627 13.9909C29.4835 13.8147 27.8555 14.9958 26.9998 14.9958C26.1276 14.9958 24.8101 14.0084 23.3913 14.0376C22.4736 14.0673 21.5793 14.3341 20.7954 14.8122C20.0115 15.2902 19.3649 15.9632 18.9184 16.7655C16.9844 20.1139 18.427 25.0349 20.2796 27.7416C21.2065 29.0669 22.2898 30.5474 23.7072 30.4949C25.0943 30.4373 25.6123 29.6104 27.2866 29.6104C28.9454 29.6104 29.4314 30.4949 30.8776 30.4615C32.366 30.4373 33.3038 29.1302 34.1981 27.7924C34.8641 26.848 35.3766 25.8043 35.7166 24.6998C34.8519 24.3341 34.114 23.7219 33.5948 22.9396C33.0757 22.1573 32.7983 21.2395 32.7973 20.3007Z" fill="#FFFFFF" fill-opacity="1.000000" fill-rule="nonzero"/>
		<path id="&lt;Path&gt;" d="M30.0657 12.2109C30.8772 11.2367 31.277 9.98447 31.1802 8.72025C29.9403 8.85046 28.7951 9.44302 27.9726 10.3799C27.5704 10.8375 27.2625 11.37 27.0662 11.9467C26.8699 12.5235 26.7893 13.1333 26.8289 13.7412C27.449 13.7476 28.0625 13.6132 28.6232 13.3481C29.1838 13.083 29.6771 12.6942 30.0657 12.2109Z" fill="#FFFFFF" fill-opacity="1.000000" fill-rule="nonzero"/>
		<path id="Vector" d="M50.3307 27.1396L45.5973 27.1396L44.4606 30.4961L42.4557 30.4961L46.9391 18.0781L49.0221 18.0781L53.5055 30.4961L51.4664 30.4961L50.3307 27.1396ZM46.0875 25.5908L49.8395 25.5908L47.9899 20.1436L47.9382 20.1436L46.0875 25.5908Z" fill="#FFFFFF" fill-opacity="1.000000" fill-rule="nonzero"/>
		<path id="Vector" d="M63.1881 25.9697C63.1881 28.7832 61.6823 30.5908 59.4098 30.5908C58.8342 30.6209 58.2617 30.4883 57.7579 30.2082C57.2541 29.928 56.8394 29.5117 56.5612 29.0068L56.5182 29.0068L56.5182 33.4912L54.6598 33.4912L54.6598 21.4424L56.4586 21.4424L56.4586 22.9482L56.4928 22.9482C56.7838 22.4458 57.2055 22.0316 57.7131 21.7497C58.2208 21.4679 58.7953 21.3289 59.3756 21.3477C61.6735 21.3477 63.1881 23.1641 63.1881 25.9697ZM61.278 25.9697C61.278 24.1367 60.3307 22.9316 58.8854 22.9316C57.4655 22.9316 56.5104 24.1621 56.5104 25.9697C56.5104 27.7939 57.4655 29.0156 58.8854 29.0156C60.3307 29.0156 61.278 27.8193 61.278 25.9697Z" fill="#FFFFFF" fill-opacity="1.000000" fill-rule="nonzero"/>
		<path id="Vector" d="M73.153 25.9697C73.153 28.7832 71.6471 30.5908 69.3746 30.5908C68.799 30.6209 68.2265 30.4883 67.7227 30.2082C67.2189 29.928 66.8042 29.5117 66.5261 29.0068L66.483 29.0068L66.483 33.4912L64.6246 33.4912L64.6246 21.4424L66.4235 21.4424L66.4235 22.9482L66.4576 22.9482C66.7486 22.4458 67.1703 22.0316 67.678 21.7497C68.1856 21.4679 68.7601 21.3289 69.3405 21.3477C71.6383 21.3477 73.153 23.1641 73.153 25.9697ZM71.2428 25.9697C71.2428 24.1367 70.2955 22.9316 68.8502 22.9316C67.4303 22.9316 66.4752 24.1621 66.4752 25.9697C66.4752 27.7939 67.4303 29.0156 68.8502 29.0156C70.2955 29.0156 71.2429 27.8193 71.2429 25.9697L71.2428 25.9697Z" fill="#FFFFFF" fill-opacity="1.000000" fill-rule="nonzero"/>
		<path id="Vector" d="M79.7389 27.0361C79.8766 28.2676 81.0729 29.0761 82.7076 29.0761C84.2741 29.0761 85.401 28.2675 85.401 27.1572C85.401 26.1933 84.7213 25.6162 83.1119 25.2206L81.5026 24.8329C79.2224 24.2822 78.1637 23.2158 78.1637 21.4853C78.1637 19.3427 80.0309 17.871 82.6823 17.871C85.3063 17.871 87.1051 19.3427 87.1656 21.4853L85.2897 21.4853C85.1774 20.246 84.153 19.498 82.6559 19.498C81.1588 19.498 80.1344 20.2548 80.1344 21.3564C80.1344 22.2343 80.7887 22.7509 82.3893 23.1464L83.7574 23.4823C86.3053 24.0849 87.3639 25.1083 87.3639 26.9247C87.3639 29.248 85.5133 30.703 82.5699 30.703C79.816 30.703 77.9567 29.2821 77.8365 27.036L79.7389 27.0361Z" fill="#FFFFFF" fill-opacity="1.000000" fill-rule="nonzero"/>
		<path id="Vector" d="M91.3746 19.2998L91.3746 21.4424L93.0963 21.4424L93.0963 22.914L91.3746 22.914L91.3746 27.9052C91.3746 28.6806 91.7194 29.042 92.4762 29.042C92.6806 29.0384 92.8846 29.024 93.0875 28.999L93.0875 30.4619C92.7473 30.5254 92.4014 30.5542 92.0553 30.5478C90.2223 30.5478 89.5074 29.8593 89.5074 28.1035L89.5074 22.914L88.191 22.914L88.191 21.4424L89.5074 21.4424L89.5074 19.2998L91.3746 19.2998Z" fill="#FFFFFF" fill-opacity="1.000000" fill-rule="nonzero"/>
		<path id="Vector" d="M94.0935 25.9697C94.0935 23.1211 95.7712 21.3311 98.3875 21.3311C101.012 21.3311 102.682 23.1211 102.682 25.9697C102.682 28.8262 101.021 30.6084 98.3875 30.6084C95.7546 30.6084 94.0935 28.8262 94.0935 25.9697ZM100.789 25.9697C100.789 24.0156 99.8933 22.8623 98.3875 22.8623C96.8816 22.8623 95.9871 24.0244 95.9871 25.9697C95.9871 27.9316 96.8816 29.0762 98.3875 29.0762C99.8933 29.0762 100.789 27.9316 100.789 25.9697L100.789 25.9697Z" fill="#FFFFFF" fill-opacity="1.000000" fill-rule="nonzero"/>
		<path id="Vector" d="M104.214 21.4424L105.987 21.4424L105.987 22.9833L106.03 22.9833C106.15 22.5021 106.432 22.0767 106.828 21.7788C107.225 21.481 107.712 21.3287 108.208 21.3476C108.422 21.3469 108.635 21.3701 108.844 21.417L108.844 23.1552C108.574 23.0726 108.292 23.0347 108.009 23.0429C107.739 23.032 107.47 23.0796 107.22 23.1825C106.971 23.2853 106.746 23.4411 106.562 23.639C106.378 23.8369 106.239 24.0722 106.155 24.3289C106.07 24.5856 106.042 24.8575 106.073 25.1259L106.073 30.4961L104.214 30.4961L104.214 21.4424Z" fill="#FFFFFF" fill-opacity="1.000000" fill-rule="nonzero"/>
		<path id="Vector" d="M117.413 27.8369C117.163 29.4804 115.562 30.6084 113.514 30.6084C110.88 30.6084 109.246 28.8437 109.246 26.0127C109.246 23.1728 110.889 21.331 113.436 21.331C115.941 21.331 117.516 23.0517 117.516 25.7968L117.516 26.4336L111.122 26.4336L111.122 26.5459C111.092 26.8791 111.134 27.2147 111.244 27.5306C111.354 27.8464 111.53 28.1352 111.761 28.3777C111.991 28.6203 112.27 28.8111 112.58 28.9373C112.89 29.0637 113.223 29.1226 113.557 29.1103C113.996 29.1515 114.437 29.0497 114.814 28.8203C115.191 28.5909 115.483 28.246 115.648 27.8369L117.413 27.8369ZM111.13 25.1347L115.657 25.1347C115.674 24.8351 115.628 24.5353 115.523 24.2541C115.419 23.9729 115.257 23.7164 115.049 23.5006C114.84 23.2849 114.589 23.1145 114.312 23.0003C114.034 22.8861 113.736 22.8304 113.436 22.8369C113.134 22.8351 112.834 22.8932 112.553 23.008C112.273 23.1227 112.019 23.2918 111.805 23.5054C111.59 23.7191 111.42 23.973 111.305 24.2527C111.189 24.5323 111.13 24.8321 111.13 25.1347L111.13 25.1347Z" fill="#FFFFFF" fill-opacity="1.000000" fill-rule="nonzero"/>
		<path id="Vector" d="M45.8546 8.73099C46.2442 8.70303 46.6352 8.76187 46.9993 8.90332C47.3634 9.04474 47.6916 9.26523 47.9602 9.54886C48.2288 9.83249 48.431 10.1722 48.5525 10.5435C48.6739 10.9147 48.7114 11.3083 48.6622 11.6958C48.6622 13.6021 47.632 14.6978 45.8546 14.6978L43.6993 14.6978L43.6993 8.73099L45.8546 8.73099ZM44.6261 13.854L45.7511 13.854C46.0295 13.8706 46.3081 13.825 46.5667 13.7204C46.8252 13.6158 47.0571 13.4548 47.2457 13.2492C47.4341 13.0437 47.5744 12.7987 47.6562 12.532C47.7382 12.2654 47.7595 11.9839 47.7189 11.708C47.7566 11.4331 47.733 11.1534 47.6499 10.8887C47.5668 10.6241 47.4261 10.381 47.2381 10.1771C47.05 9.97318 46.8192 9.81339 46.5621 9.70914C46.3051 9.60492 46.0281 9.55881 45.7511 9.57419L44.6261 9.57419L44.6261 13.854Z" fill="#FFFFFF" fill-opacity="1.000000" fill-rule="nonzero"/>
		<path id="Vector" d="M49.7092 12.4443C49.6808 12.1484 49.7147 11.8499 49.8085 11.5678C49.9023 11.2857 50.0541 11.0264 50.2541 10.8064C50.454 10.5864 50.6977 10.4106 50.9695 10.2904C51.2414 10.1701 51.5354 10.108 51.8327 10.108C52.1299 10.108 52.424 10.1701 52.6958 10.2904C52.9677 10.4106 53.2114 10.5864 53.4113 10.8064C53.6112 11.0264 53.763 11.2857 53.8568 11.5678C53.9507 11.8499 53.9845 12.1484 53.9562 12.4443C53.985 12.7406 53.9516 13.0396 53.858 13.3221C53.7644 13.6046 53.6127 13.8644 53.4128 14.0848C53.2128 14.3052 52.9689 14.4814 52.6968 14.6019C52.4246 14.7224 52.1303 14.7847 51.8327 14.7847C51.535 14.7847 51.2407 14.7224 50.9686 14.6019C50.6965 14.4814 50.4526 14.3052 50.2526 14.0848C50.0526 13.8644 49.9009 13.6046 49.8073 13.3221C49.7137 13.0396 49.6803 12.7406 49.7092 12.4443ZM53.0421 12.4443C53.0421 11.4683 52.6036 10.8975 51.8342 10.8975C51.0617 10.8975 50.6271 11.4683 50.6271 12.4444C50.6271 13.4283 51.0617 13.9947 51.8342 13.9947C52.6037 13.9946 53.0422 13.4243 53.0422 12.4443L53.0421 12.4443Z" fill="#FFFFFF" fill-opacity="1.000000" fill-rule="nonzero"/>
		<path id="Vector" d="M59.6017 14.6978L58.6798 14.6978L57.7491 11.3813L57.6788 11.3813L56.7521 14.6978L55.839 14.6978L54.5978 10.1948L55.4991 10.1948L56.3058 13.6308L56.3722 13.6308L57.298 10.1948L58.1505 10.1948L59.0763 13.6308L59.1466 13.6308L59.9493 10.1948L60.838 10.1948L59.6017 14.6978Z" fill="#FFFFFF" fill-opacity="1.000000" fill-rule="nonzero"/>
		<path id="Vector" d="M61.882 10.1948L62.7374 10.1948L62.7374 10.9101L62.8038 10.9101C62.9165 10.6532 63.1065 10.4378 63.3474 10.294C63.5883 10.1502 63.868 10.0851 64.1476 10.1079C64.3667 10.0914 64.5867 10.1245 64.7913 10.2046C64.9959 10.2846 65.1798 10.4098 65.3295 10.5706C65.4792 10.7314 65.5908 10.9239 65.656 11.1337C65.7212 11.3435 65.7383 11.5653 65.7062 11.7827L65.7062 14.6977L64.8175 14.6977L64.8175 12.0059C64.8175 11.2822 64.5031 10.9223 63.8458 10.9223C63.6971 10.9154 63.5486 10.9407 63.4105 10.9966C63.2725 11.0524 63.1481 11.1374 63.046 11.2458C62.9438 11.3542 62.8664 11.4834 62.8188 11.6245C62.7713 11.7656 62.7549 11.9154 62.7706 12.0634L62.7706 14.6977L61.882 14.6977L61.882 10.1948Z" fill="#FFFFFF" fill-opacity="1.000000" fill-rule="nonzero"/>
		<path id="Vector" d="M67.1222 8.43698L68.0109 8.43698L68.0109 14.6977L67.1222 14.6977L67.1222 8.43698Z" fill="#FFFFFF" fill-opacity="1.000000" fill-rule="nonzero"/>
		<path id="Vector" d="M69.2462 12.4443C69.218 12.1484 69.2518 11.8498 69.3457 11.5677C69.4395 11.2856 69.5913 11.0263 69.7913 10.8063C69.9913 10.5863 70.235 10.4106 70.5068 10.2903C70.7787 10.17 71.0727 10.1079 71.37 10.1079C71.6673 10.1079 71.9613 10.17 72.2332 10.2903C72.5051 10.4106 72.7488 10.5863 72.9487 10.8063C73.1487 11.0263 73.3005 11.2856 73.3943 11.5677C73.4882 11.8498 73.5221 12.1484 73.4938 12.4443C73.5226 12.7406 73.4891 13.0396 73.3955 13.3221C73.3019 13.6046 73.1502 13.8644 72.9502 14.0848C72.7502 14.3052 72.5062 14.4814 72.2341 14.6019C71.962 14.7224 71.6677 14.7847 71.37 14.7847C71.0724 14.7847 70.778 14.7224 70.5059 14.6019C70.2338 14.4814 69.9899 14.3052 69.7899 14.0848C69.5898 13.8644 69.4382 13.6046 69.3445 13.3221C69.2509 13.0396 69.2174 12.7406 69.2462 12.4443ZM72.5792 12.4443C72.5792 11.4683 72.1407 10.8975 71.3712 10.8975C70.5988 10.8975 70.1642 11.4683 70.1642 12.4444C70.1642 13.4283 70.5988 13.9946 71.3712 13.9946C72.1407 13.9946 72.5792 13.4243 72.5792 12.4443L72.5792 12.4443Z" fill="#FFFFFF" fill-opacity="1.000000" fill-rule="nonzero"/>
		<path id="Vector" d="M74.4293 13.4243C74.4293 12.6138 75.0328 12.1465 76.1041 12.0801L77.3239 12.0098L77.3239 11.6211C77.3239 11.1455 77.0094 10.877 76.402 10.877C75.9059 10.877 75.5621 11.0591 75.4635 11.3774L74.6031 11.3774C74.694 10.604 75.4215 10.1079 76.443 10.1079C77.5719 10.1079 78.2086 10.6699 78.2086 11.6211L78.2086 14.6978L77.3531 14.6978L77.3531 14.0649L77.2828 14.0649C77.1401 14.2919 76.9397 14.477 76.7021 14.6012C76.4645 14.7254 76.1981 14.7843 75.9303 14.7719C75.7413 14.7916 75.5502 14.7714 75.3694 14.7127C75.1887 14.6541 75.0222 14.5581 74.8808 14.4312C74.7394 14.3042 74.6262 14.149 74.5484 13.9756C74.4706 13.8022 74.4301 13.6143 74.4293 13.4243ZM77.3239 13.0396L77.3239 12.6631L76.2242 12.7334C75.6041 12.7749 75.3229 12.9858 75.3229 13.3828C75.3229 13.7881 75.6744 14.0239 76.1578 14.0239C76.2995 14.0382 76.4426 14.024 76.5786 13.9818C76.7146 13.9398 76.8408 13.8708 76.9495 13.7789C77.0583 13.6871 77.1475 13.5743 77.2119 13.4473C77.2761 13.3203 77.3142 13.1816 77.3239 13.0396Z" fill="#FFFFFF" fill-opacity="1.000000" fill-rule="nonzero"/>
		<path id="Vector" d="M79.3766 12.4443C79.3766 11.0215 80.108 10.1201 81.2457 10.1201C81.5272 10.1071 81.8065 10.1745 82.051 10.3144C82.2955 10.4543 82.4951 10.6609 82.6266 10.9101L82.693 10.9101L82.693 8.43698L83.5817 8.43698L83.5817 14.6977L82.7301 14.6977L82.7301 13.9863L82.6598 13.9863C82.5182 14.2338 82.3116 14.4378 82.0623 14.5763C81.813 14.7148 81.5307 14.7824 81.2457 14.7719C80.1002 14.772 79.3766 13.8706 79.3766 12.4443ZM80.2946 12.4443C80.2946 13.3994 80.7448 13.9741 81.4977 13.9741C82.2467 13.9741 82.7096 13.3911 82.7096 12.4482C82.7096 11.5098 82.2419 10.9184 81.4977 10.9184C80.7496 10.9184 80.2946 11.497 80.2946 12.4443L80.2946 12.4443Z" fill="#FFFFFF" fill-opacity="1.000000" fill-rule="nonzero"/>
		<path id="Vector" d="M87.2585 12.4443C87.2302 12.1484 87.264 11.8499 87.3578 11.5678C87.4517 11.2857 87.6035 11.0264 87.8034 10.8064C88.0033 10.5864 88.247 10.4106 88.5189 10.2904C88.7907 10.1701 89.0847 10.108 89.382 10.108C89.6793 10.108 89.9733 10.1701 90.2451 10.2904C90.517 10.4106 90.7607 10.5864 90.9606 10.8064C91.1605 11.0264 91.3123 11.2857 91.4061 11.5678C91.5 11.8499 91.5338 12.1484 91.5056 12.4443C91.5344 12.7406 91.5009 13.0396 91.4073 13.3221C91.3137 13.6046 91.162 13.8644 90.9621 14.0848C90.7621 14.3052 90.5182 14.4814 90.2461 14.6019C89.9739 14.7224 89.6796 14.7847 89.382 14.7847C89.0844 14.7847 88.79 14.7224 88.5179 14.6019C88.2458 14.4814 88.0019 14.3052 87.8019 14.0848C87.6019 13.8644 87.4503 13.6046 87.3566 13.3221C87.2631 13.0396 87.2296 12.7406 87.2585 12.4443ZM90.5914 12.4443C90.5914 11.4683 90.153 10.8975 89.3835 10.8975C88.611 10.8975 88.1765 11.4683 88.1765 12.4444C88.1765 13.4283 88.611 13.9947 89.3835 13.9947C90.153 13.9946 90.5914 13.4243 90.5914 12.4443Z" fill="#FFFFFF" fill-opacity="1.000000" fill-rule="nonzero"/>
		<path id="Vector" d="M92.6979 10.1948L93.5533 10.1948L93.5533 10.9101L93.6198 10.9101C93.7324 10.6532 93.9224 10.4378 94.1633 10.294C94.4042 10.1502 94.6839 10.0851 94.9635 10.1079C95.1826 10.0914 95.4026 10.1245 95.6072 10.2046C95.8118 10.2846 95.9957 10.4098 96.1454 10.5706C96.2951 10.7314 96.4067 10.9239 96.4719 11.1337C96.5371 11.3435 96.5543 11.5653 96.5221 11.7827L96.5221 14.6977L95.6334 14.6977L95.6334 12.0059C95.6334 11.2822 95.319 10.9223 94.6617 10.9223C94.513 10.9154 94.3645 10.9407 94.2264 10.9966C94.0884 11.0524 93.9641 11.1374 93.8619 11.2458C93.7598 11.3542 93.6823 11.4834 93.6348 11.6245C93.5872 11.7656 93.5708 11.9154 93.5865 12.0634L93.5865 14.6977L92.6979 14.6977L92.6979 10.1948Z" fill="#FFFFFF" fill-opacity="1.000000" fill-rule="nonzero"/>
		<path id="Vector" d="M101.544 9.07373L101.544 10.2153L102.519 10.2153L102.519 10.9639L101.544 10.9639L101.544 13.2793C101.544 13.751 101.738 13.9575 102.18 13.9575C102.294 13.9572 102.407 13.9503 102.519 13.937L102.519 14.6772C102.36 14.7058 102.198 14.721 102.036 14.7227C101.047 14.7227 100.654 14.375 100.654 13.5068L100.654 10.9638L99.9391 10.9638L99.9391 10.2153L100.654 10.2153L100.654 9.07373L101.544 9.07373Z" fill="#FFFFFF" fill-opacity="1.000000" fill-rule="nonzero"/>
		<path id="Vector" d="M103.733 8.43698L104.614 8.43698L104.614 10.9184L104.684 10.9184C104.802 10.6591 104.998 10.4425 105.243 10.2982C105.489 10.1538 105.773 10.0887 106.057 10.1118C106.275 10.0999 106.493 10.1363 106.695 10.2184C106.898 10.3004 107.079 10.4261 107.227 10.5864C107.376 10.7468 107.486 10.9378 107.552 11.1459C107.618 11.3541 107.637 11.5742 107.608 11.7905L107.608 14.6977L106.718 14.6977L106.718 12.0097C106.718 11.2905 106.383 10.9262 105.756 10.9262C105.603 10.9137 105.449 10.9347 105.305 10.9878C105.162 11.0408 105.031 11.1246 104.923 11.2334C104.815 11.3421 104.732 11.4731 104.68 11.6173C104.628 11.7614 104.608 11.9152 104.622 12.0678L104.622 14.6977L103.733 14.6977L103.733 8.43698Z" fill="#FFFFFF" fill-opacity="1.000000" fill-rule="nonzero"/>
		<path id="Vector" d="M112.79 13.4819C112.669 13.8935 112.407 14.2495 112.051 14.4876C111.694 14.7257 111.265 14.8309 110.839 14.7846C110.542 14.7925 110.247 14.7357 109.975 14.6181C109.702 14.5006 109.458 14.3252 109.26 14.104C109.063 13.8829 108.915 13.6213 108.828 13.3375C108.742 13.0537 108.718 12.7544 108.758 12.4604C108.719 12.1656 108.743 11.8656 108.83 11.5809C108.916 11.2963 109.063 11.0335 109.26 10.8104C109.457 10.5874 109.699 10.4092 109.971 10.288C110.243 10.1668 110.537 10.1053 110.835 10.1079C112.088 10.1079 112.843 10.9639 112.843 12.3779L112.843 12.688L109.664 12.688L109.664 12.7378C109.65 12.903 109.671 13.0694 109.725 13.2261C109.779 13.3829 109.865 13.5266 109.978 13.648C110.091 13.7695 110.228 13.866 110.38 13.9314C110.533 13.9968 110.697 14.0296 110.863 14.0278C111.076 14.0533 111.291 14.015 111.482 13.9178C111.672 13.8206 111.83 13.6689 111.934 13.4819L112.79 13.4819ZM109.664 12.0307L111.938 12.0307C111.949 11.8796 111.929 11.7278 111.878 11.5851C111.827 11.4424 111.747 11.3119 111.642 11.2021C111.538 11.0922 111.412 11.0054 111.272 10.9472C111.132 10.889 110.981 10.8608 110.83 10.8643C110.676 10.8623 110.523 10.8912 110.381 10.9491C110.239 11.007 110.109 11.0929 110.001 11.2016C109.892 11.3103 109.806 11.4397 109.748 11.5821C109.691 11.7245 109.662 11.877 109.664 12.0307L109.664 12.0307Z" fill="#FFFFFF" fill-opacity="1.000000" fill-rule="nonzero"/>
	</g>
</svg>
