<svg width="135.000000" height="40.000214" viewBox="0 0 135 40.0002" fill="none" xmlns="http://www.w3.org/2000/svg" xmlns:xlink="http://www.w3.org/1999/xlink">
	<desc>
			Created with Pixso.
	</desc>
	<defs>
		<clipPath id="clip2_253">
			<rect id="Download Badge / Google Play Badge" width="135.000000" height="40.000198" fill="white" fill-opacity="0"/>
		</clipPath>
		<linearGradient id="paint_linear_2_266_0" x1="21.799643" y1="8.709791" x2="5.017233" y2="25.492207" gradientUnits="userSpaceOnUse">
			<stop stop-color="#00A0FF"/>
			<stop offset="0.006570" stop-color="#00A1FF"/>
			<stop offset="0.260100" stop-color="#00BEFF"/>
			<stop offset="0.512200" stop-color="#00D2FF"/>
			<stop offset="0.760400" stop-color="#00DFFF"/>
			<stop offset="1.000000" stop-color="#00E3FF"/>
		</linearGradient>
		<linearGradient id="paint_linear_2_267_0" x1="33.834293" y1="20.001539" x2="9.637396" y2="20.001539" gradientUnits="userSpaceOnUse">
			<stop stop-color="#FFE000"/>
			<stop offset="0.408700" stop-color="#FFBD00"/>
			<stop offset="0.775400" stop-color="#FFA500"/>
			<stop offset="1.000000" stop-color="#FF9C00"/>
		</linearGradient>
		<linearGradient id="paint_linear_2_268_0" x1="24.826851" y1="22.296194" x2="2.068562" y2="45.054474" gradientUnits="userSpaceOnUse">
			<stop stop-color="#FF3A44"/>
			<stop offset="1.000000" stop-color="#C31162"/>
		</linearGradient>
		<linearGradient id="paint_linear_2_269_0" x1="7.297232" y1="0.176268" x2="17.459751" y2="10.338787" gradientUnits="userSpaceOnUse">
			<stop stop-color="#32A071"/>
			<stop offset="0.068500" stop-color="#2DA771"/>
			<stop offset="0.476200" stop-color="#15CF74"/>
			<stop offset="0.800900" stop-color="#06E775"/>
			<stop offset="1.000000" stop-color="#00F076"/>
		</linearGradient>
	</defs>
	<rect id="Download Badge / Google Play Badge" width="135.000000" height="40.000198" fill="#FFFFFF" fill-opacity="0"/>
	<g clip-path="url(#clip2_253)">
		<path id="Vector" d="M5 0L130 0C132.761 0 135 2.23859 135 5L135 35C135 37.7614 132.761 40 130 40L5 40C2.23859 40 0 37.7614 0 35L0 5C0 2.23859 2.23859 0 5 0Z" fill="#000000" fill-opacity="1.000000" fill-rule="evenodd"/>
		<path id="Vector" d="M130 0.799988C131.114 0.80127 132.181 1.2442 132.968 2.03165C133.756 2.81906 134.199 3.88666 134.2 5.00018L134.2 35.0002C134.199 36.1137 133.756 37.1813 132.968 37.9687C132.181 38.7561 131.114 39.1991 130 39.2004L5 39.2004C3.88644 39.1991 2.81888 38.7562 2.03149 37.9688C1.24411 37.1813 0.801239 36.1137 0.799988 35.0002L0.799988 5.00018C0.801208 3.88663 1.24408 2.81903 2.03146 2.03162C2.81885 1.24417 3.88644 0.801239 5 0.799988L130 0.799988ZM130 0.000183105L5 0.000183105C3.67511 0.00405884 2.40558 0.532104 1.46875 1.46893C0.531921 2.40576 0.00387573 3.67529 0 5.00018L0 35.0002C0.00387573 36.3251 0.531921 37.5946 1.46875 38.5314C2.40558 39.4683 3.67511 39.9963 5 40.0002L130 40.0002C131.325 39.9963 132.594 39.4683 133.531 38.5314C134.468 37.5946 134.996 36.3251 135 35.0002L135 5.00018C134.996 3.67529 134.468 2.40576 133.531 1.46893C132.594 0.532104 131.325 0.00405884 130 0.000183105Z" fill="#A6A6A6" fill-opacity="1.000000" fill-rule="nonzero"/>
		<path id="Vector" d="M47.4184 10.2433C47.4366 10.6103 47.3799 10.9771 47.2518 11.3214C47.1237 11.6657 46.9268 11.9804 46.6732 12.2462C46.389 12.541 46.0457 12.7724 45.6659 12.9254C45.2861 13.0783 44.8783 13.1494 44.4691 13.1339C44.0573 13.1376 43.649 13.0589 43.268 12.9025C42.8871 12.7462 42.5412 12.5152 42.2508 12.2232C41.9604 11.9312 41.7313 11.5842 41.5769 11.2024C41.4226 10.8206 41.3461 10.4119 41.352 10.0001C41.3462 9.58835 41.4227 9.17957 41.577 8.79779C41.7314 8.41599 41.9605 8.06891 42.2509 7.77692C42.5413 7.48492 42.8871 7.25391 43.268 7.09744C43.649 6.94098 44.0573 6.86224 44.4691 6.86581C44.8925 6.86453 45.3116 6.95013 45.7006 7.11731C46.0619 7.26376 46.3834 7.49344 46.6391 7.78772L46.1117 8.31552C45.9107 8.07895 45.6581 7.89175 45.3733 7.76831C45.0885 7.64487 44.7791 7.58853 44.4691 7.60361C44.157 7.60199 43.8478 7.66339 43.56 7.78409C43.2722 7.90482 43.0117 8.08237 42.7942 8.30612C42.5767 8.52988 42.4065 8.79523 42.2939 9.0863C42.1814 9.37738 42.1287 9.6882 42.1391 10.0001C42.1317 10.4673 42.2631 10.9262 42.5168 11.3186C42.7705 11.711 43.135 12.0192 43.5641 12.2041C43.9932 12.3891 44.4676 12.4424 44.927 12.3574C45.3865 12.2724 45.8104 12.0529 46.1449 11.7267C46.4528 11.395 46.6313 10.9636 46.6478 10.5113L44.4691 10.5113L44.4691 9.79062L47.3764 9.79062C47.4039 9.93994 47.4179 10.0915 47.4184 10.2433Z" fill="#FFFFFF" fill-opacity="1.000000" fill-rule="nonzero"/>
		<path id="Vector" d="M47.2518 11.3214C47.1237 11.6657 46.9268 11.9804 46.6732 12.2462C46.389 12.541 46.0457 12.7724 45.6659 12.9254C45.2861 13.0783 44.8783 13.1494 44.4691 13.1339C44.0573 13.1376 43.649 13.0589 43.268 12.9025C42.8871 12.7462 42.5412 12.5152 42.2508 12.2232C41.9604 11.9312 41.7313 11.5842 41.5769 11.2024C41.4226 10.8206 41.3461 10.4119 41.352 10.0001C41.3462 9.58835 41.4227 9.17957 41.577 8.79779C41.7314 8.41599 41.9605 8.06891 42.2509 7.77692C42.5413 7.48492 42.8871 7.25391 43.268 7.09744C43.649 6.94098 44.0573 6.86224 44.4691 6.86581C44.8925 6.86453 45.3116 6.95013 45.7006 7.11731C46.0619 7.26376 46.3834 7.49344 46.6391 7.78772L46.1117 8.31552C45.9107 8.07895 45.6581 7.89175 45.3733 7.76831C45.0885 7.64487 44.7791 7.58853 44.4691 7.60361C44.157 7.60199 43.8478 7.66339 43.56 7.78409C43.2722 7.90482 43.0117 8.08237 42.7942 8.30612C42.5767 8.52988 42.4065 8.79523 42.2939 9.0863C42.1814 9.37738 42.1287 9.6882 42.1391 10.0001C42.1317 10.4673 42.2631 10.9262 42.5168 11.3186C42.7705 11.711 43.135 12.0192 43.5641 12.2041C43.9932 12.3891 44.4676 12.4424 44.927 12.3574C45.3865 12.2724 45.8104 12.0529 46.1449 11.7267C46.4528 11.395 46.6313 10.9636 46.6478 10.5113L44.4691 10.5113L44.4691 9.79062L47.3764 9.79062C47.4039 9.93994 47.4179 10.0915 47.4184 10.2433C47.4366 10.6103 47.3799 10.9771 47.2518 11.3214Z" stroke="#FFFFFF" stroke-opacity="1.000000" stroke-width="0.200000"/>
		<path id="Vector" d="M52.0277 7.7374L49.2953 7.7374L49.2953 9.63968L51.7592 9.63968L51.7592 10.3605L49.2953 10.3605L49.2953 12.2628L52.0277 12.2628L52.0277 13.0001L48.5248 13.0001L48.5248 7.00009L52.0277 7.00009L52.0277 7.7374Z" fill="#FFFFFF" fill-opacity="1.000000" fill-rule="nonzero"/>
		<path id="Vector" d="M49.2953 7.7374L49.2953 9.63968L51.7592 9.63968L51.7592 10.3605L49.2953 10.3605L49.2953 12.2628L52.0277 12.2628L52.0277 13.0001L48.5248 13.0001L48.5248 7.00009L52.0277 7.00009L52.0277 7.7374L49.2953 7.7374Z" stroke="#FFFFFF" stroke-opacity="1.000000" stroke-width="0.200000"/>
		<path id="Vector" d="M55.2787 13.0001L54.5072 13.0001L54.5072 7.7374L52.8314 7.7374L52.8314 7.00009L56.9545 7.00009L56.9545 7.7374L55.2787 7.7374L55.2787 13.0001Z" fill="#FFFFFF" fill-opacity="1.000000" fill-rule="nonzero"/>
		<path id="Vector" d="M54.5072 13.0001L54.5072 7.7374L52.8314 7.7374L52.8314 7.00009L56.9545 7.00009L56.9545 7.7374L55.2787 7.7374L55.2787 13.0001L54.5072 13.0001Z" stroke="#FFFFFF" stroke-opacity="1.000000" stroke-width="0.200000"/>
		<path id="Vector" d="M59.9379 13.0001L59.9379 7.00009L60.7084 7.00009L60.7084 13.0001L59.9379 13.0001Z" fill="#FFFFFF" fill-opacity="1.000000" fill-rule="nonzero"/>
		<path id="Vector" d="M59.9379 7.00009L60.7084 7.00009L60.7084 13.0001L59.9379 13.0001L59.9379 7.00009Z" stroke="#FFFFFF" stroke-opacity="1.000000" stroke-width="0.200000"/>
		<path id="Vector" d="M64.1284 13.0001L63.3568 13.0001L63.3568 7.7374L61.6812 7.7374L61.6812 7.00009L65.8041 7.00009L65.8041 7.7374L64.1284 7.7374L64.1284 13.0001Z" fill="#FFFFFF" fill-opacity="1.000000" fill-rule="nonzero"/>
		<path id="Vector" d="M63.3568 13.0001L63.3568 7.7374L61.6812 7.7374L61.6812 7.00009L65.8041 7.00009L65.8041 7.7374L64.1284 7.7374L64.1284 13.0001L63.3568 13.0001Z" stroke="#FFFFFF" stroke-opacity="1.000000" stroke-width="0.200000"/>
		<path id="Vector" d="M73.6093 12.2247C73.0253 12.8069 72.2343 13.1339 71.4096 13.1339C70.585 13.1339 69.7939 12.8069 69.2099 12.2247C68.921 11.9321 68.6938 11.5843 68.5421 11.2021C68.3902 10.82 68.3168 10.4112 68.3261 10.0001C68.3168 9.58896 68.3902 9.18018 68.5421 8.798C68.6938 8.41583 68.921 8.06812 69.2099 7.77548C69.4985 7.48676 69.8413 7.25778 70.2186 7.10168C70.5958 6.94559 71.0002 6.86542 71.4084 6.86578C71.8168 6.86615 72.2209 6.94702 72.5979 7.10379C72.9749 7.26056 73.3173 7.49014 73.6054 7.77939C73.8945 8.07123 74.1221 8.41818 74.2746 8.79965C74.4271 9.18112 74.5014 9.58936 74.4931 10.0001C74.5022 10.4112 74.4286 10.8199 74.2768 11.202C74.125 11.5841 73.898 11.9319 73.6093 12.2247ZM69.7792 11.7223C70.2117 12.1541 70.7979 12.3966 71.4091 12.3966C72.0203 12.3966 72.6064 12.1541 73.039 11.7223C73.2608 11.4952 73.4343 11.2255 73.5489 10.9295C73.6636 10.6335 73.717 10.3173 73.706 10.0001C73.717 9.68283 73.6636 9.36667 73.5489 9.07065C73.4343 8.77466 73.2608 8.50497 73.039 8.27789C72.6064 7.8461 72.0203 7.60358 71.4091 7.60358C70.7979 7.60358 70.2117 7.8461 69.7792 8.27789C69.5577 8.50516 69.3845 8.7749 69.2701 9.07086C69.1556 9.36685 69.1022 9.68292 69.1132 10.0001C69.1022 10.3172 69.1556 10.6333 69.2701 10.9293C69.3845 11.2253 69.5577 11.495 69.7792 11.7223Z" fill="#FFFFFF" fill-opacity="1.000000" fill-rule="nonzero"/>
		<path id="Vector" d="M71.4096 13.1339C70.585 13.1339 69.7939 12.8069 69.2099 12.2247C68.921 11.9321 68.6938 11.5843 68.5421 11.2021C68.3902 10.82 68.3168 10.4112 68.3261 10.0001C68.3168 9.58896 68.3902 9.18018 68.5421 8.798C68.6938 8.41583 68.921 8.06812 69.2099 7.77548C69.4985 7.48676 69.8413 7.25778 70.2186 7.10168C70.5958 6.94559 71.0002 6.86542 71.4084 6.86578C71.8168 6.86615 72.2209 6.94702 72.5979 7.10379C72.9749 7.26056 73.3173 7.49014 73.6054 7.77939C73.8945 8.07123 74.1221 8.41818 74.2746 8.79965C74.4271 9.18112 74.5014 9.58936 74.4931 10.0001C74.5022 10.4112 74.4286 10.8199 74.2768 11.202C74.125 11.5841 73.898 11.9319 73.6093 12.2247C73.0253 12.8069 72.2343 13.1339 71.4096 13.1339ZM71.4091 12.3966C72.0203 12.3966 72.6064 12.1541 73.039 11.7223C73.2608 11.4952 73.4343 11.2255 73.5489 10.9295C73.6636 10.6335 73.717 10.3173 73.706 10.0001C73.717 9.68283 73.6636 9.36667 73.5489 9.07065C73.4343 8.77466 73.2608 8.50497 73.039 8.27789C72.6064 7.8461 72.0203 7.60358 71.4091 7.60358C70.7979 7.60358 70.2117 7.8461 69.7792 8.27789C69.5577 8.50516 69.3845 8.7749 69.2701 9.07086C69.1556 9.36685 69.1022 9.68292 69.1132 10.0001C69.1022 10.3172 69.1556 10.6333 69.2701 10.9293C69.3845 11.2253 69.5577 11.495 69.7792 11.7223C70.2117 12.1541 70.7979 12.3966 71.4091 12.3966Z" stroke="#FFFFFF" stroke-opacity="1.000000" stroke-width="0.200000"/>
		<path id="Vector" d="M75.5751 13.0001L75.5751 7.00009L76.5135 7.00009L79.4296 11.6676L79.4628 11.6676L79.4296 10.5113L79.4296 7.00009L80.201 7.00009L80.201 13.0001L79.3964 13.0001L76.3456 8.10648L76.3124 8.10648L76.3456 9.26279L76.3456 13.0001L75.5751 13.0001Z" fill="#FFFFFF" fill-opacity="1.000000" fill-rule="nonzero"/>
		<path id="Vector" d="M75.5751 7.00009L76.5135 7.00009L79.4296 11.6676L79.4628 11.6676L79.4296 10.5113L79.4296 7.00009L80.201 7.00009L80.201 13.0001L79.3964 13.0001L76.3456 8.10648L76.3124 8.10648L76.3456 9.26279L76.3456 13.0001L75.5751 13.0001L75.5751 7.00009Z" stroke="#FFFFFF" stroke-opacity="1.000000" stroke-width="0.200000"/>
		<path id="Vector" d="M68.1357 21.7517C67.2952 21.7549 66.4745 22.007 65.7772 22.4763C65.0799 22.9456 64.5373 23.6109 64.2178 24.3884C63.8984 25.1658 63.8165 26.0205 63.9824 26.8445C64.1483 27.6685 64.5547 28.4248 65.1501 29.018C65.7456 29.6112 66.5035 30.0146 67.3281 30.1775C68.1526 30.3403 69.007 30.2551 69.7833 29.9327C70.5594 29.6103 71.2228 29.0652 71.6894 28.3661C72.156 27.667 72.405 26.8453 72.405 26.0048C72.4133 25.4426 72.3084 24.8845 72.0966 24.3637C71.8847 23.8429 71.5703 23.37 71.172 22.9732C70.7737 22.5764 70.2996 22.2638 69.778 22.0539C69.2564 21.8441 68.6979 21.7413 68.1357 21.7517ZM68.1357 28.5825C67.6181 28.6194 67.1014 28.4996 66.6528 28.2387C66.2042 27.9778 65.8445 27.5879 65.6207 27.1198C65.3967 26.6516 65.319 26.1269 65.3975 25.6139C65.476 25.101 65.7072 24.6235 66.0608 24.2437C66.4144 23.864 66.8742 23.5995 67.3803 23.4846C67.8864 23.3699 68.4153 23.4101 68.8982 23.6001C69.3811 23.7901 69.7956 24.1211 70.0878 24.55C70.3799 24.9789 70.5361 25.4858 70.5361 26.0048C70.5519 26.3326 70.5018 26.6603 70.389 26.9685C70.2761 27.2767 70.1028 27.5592 69.8791 27.7994C69.6554 28.0396 69.386 28.2326 69.0865 28.3671C68.7872 28.5016 68.4639 28.5748 68.1357 28.5825ZM58.8224 21.7517C57.9818 21.7549 57.1611 22.007 56.4638 22.4763C55.7664 22.9455 55.2238 23.6109 54.9044 24.3883C54.5849 25.1658 54.503 26.0204 54.6689 26.8444C54.8348 27.6684 55.2411 28.4247 55.8366 29.0179C56.4321 29.6112 57.1899 30.0146 58.0145 30.1775C58.8391 30.3403 59.6935 30.2551 60.4697 29.9327C61.2459 29.6103 61.9093 29.0652 62.3759 28.3661C62.8425 27.667 63.0916 26.8453 63.0916 26.0048C63.0998 25.4426 62.9949 24.8845 62.7831 24.3637C62.5713 23.8429 62.2568 23.3701 61.8585 22.9732C61.4602 22.5764 60.9861 22.2638 60.4646 22.054C59.943 21.8441 59.3845 21.7413 58.8224 21.7517ZM58.8224 28.5825C58.3047 28.6194 57.788 28.4996 57.3394 28.2387C56.8908 27.9778 56.5312 27.5879 56.3073 27.1198C56.0834 26.6516 56.0056 26.1269 56.0841 25.6139C56.1626 25.101 56.3937 24.6235 56.7474 24.2437C57.101 23.864 57.5608 23.5995 58.0669 23.4846C58.573 23.3699 59.1019 23.4101 59.5848 23.6001C60.0677 23.7901 60.4822 24.1211 60.7744 24.55C61.0665 24.9789 61.2227 25.4858 61.2227 26.0048C61.2385 26.3326 61.1884 26.6603 61.0756 26.9685C60.9628 27.2767 60.7894 27.5592 60.5657 27.7994C60.342 28.0396 60.0726 28.2327 59.7732 28.3671C59.4738 28.5016 59.1505 28.5748 58.8224 28.5825ZM47.7435 23.0567L47.7435 24.861L52.0612 24.861C51.999 25.7073 51.6526 26.5078 51.0784 27.1326C50.6458 27.5736 50.1254 27.919 49.551 28.1466C48.9766 28.3741 48.3609 28.4787 47.7435 28.4536C46.4815 28.4365 45.277 27.9232 44.3906 27.0247C43.5042 26.1262 43.0072 24.9148 43.0072 23.6527C43.0072 22.3905 43.5042 21.1792 44.3906 20.2807C45.277 19.3822 46.4815 18.8689 47.7435 18.8518C48.9557 18.8359 50.1252 19.2991 50.998 20.1406L52.2706 18.8679C51.6752 18.2784 50.9681 17.8137 50.1907 17.5011C49.4133 17.1885 48.5813 17.0342 47.7435 17.0474C46.868 17.0346 45.9987 17.1961 45.1862 17.5223C44.3736 17.8485 43.634 18.333 43.0103 18.9477C42.3867 19.5623 41.8915 20.2947 41.5535 21.1025C41.2155 21.9102 41.0414 22.7771 41.0414 23.6527C41.0414 24.5283 41.2155 25.3951 41.5535 26.2029C41.8915 27.0106 42.3867 27.7431 43.0103 28.3577C43.634 28.9723 44.3736 29.4568 45.1862 29.7831C45.9987 30.1093 46.868 30.2707 47.7435 30.258C48.599 30.2935 49.4522 30.1466 50.2466 29.8272C51.041 29.5078 51.7584 29.0231 52.3511 28.4053C53.4036 27.2565 53.9645 25.7415 53.9139 24.1844C53.9181 23.8062 53.8857 23.4286 53.8171 23.0567L47.7435 23.0567ZM93.0519 24.4582C92.7963 23.6878 92.3097 23.0148 91.6583 22.5306C91.0069 22.0464 90.2222 21.7744 89.4108 21.7517C88.8644 21.7551 88.3243 21.8692 87.8232 22.0873C87.3221 22.3053 86.8704 22.6227 86.4955 23.0202C86.1205 23.4178 85.8301 23.8872 85.6417 24.4002C85.4533 24.9132 85.3709 25.459 85.3994 26.0048C85.3871 26.564 85.4877 27.1199 85.695 27.6393C85.9023 28.1588 86.2123 28.6311 86.6063 29.0281C87.0002 29.4251 87.4702 29.7387 87.9881 29.95C88.5059 30.1613 89.0611 30.266 89.6204 30.258C90.321 30.2618 91.0117 30.0916 91.6302 29.7627C92.2488 29.4337 92.7761 28.9562 93.1646 28.3731L91.7147 27.4065C91.4974 27.7672 91.1902 28.0653 90.823 28.2715C90.4559 28.4776 90.0414 28.5848 89.6204 28.5825C89.187 28.5991 88.7587 28.485 88.3911 28.2552C88.0233 28.0254 87.7332 27.6904 87.5582 27.2937L93.2452 24.9416L93.0519 24.4582ZM87.2521 25.876C87.2321 25.5664 87.274 25.256 87.3754 24.9628C87.4768 24.6696 87.6357 24.3997 87.8427 24.1686C88.0497 23.9376 88.3007 23.7502 88.5811 23.6173C88.8613 23.4845 89.1653 23.4089 89.4752 23.395C89.7979 23.3737 90.1198 23.448 90.4005 23.6084C90.6813 23.7689 90.9086 24.0084 91.0541 24.2972L87.2521 25.876ZM82.6284 30.0002L84.4971 30.0002L84.4971 17.4986L82.6284 17.4986L82.6284 30.0002ZM79.5673 22.7022L79.5029 22.7022C79.2188 22.3935 78.8721 22.149 78.4859 21.9851C78.0997 21.8212 77.683 21.7416 77.2635 21.7517C76.1669 21.7983 75.1306 22.2668 74.3711 23.0594C73.6116 23.8519 73.1876 24.9071 73.1876 26.0048C73.1876 27.1025 73.6116 28.1578 74.3711 28.9503C75.1306 29.7428 76.1669 30.2113 77.2635 30.258C77.6846 30.2692 78.1031 30.1885 78.4898 30.0216C78.8766 29.8546 79.2223 29.6055 79.5029 29.2914L79.5673 29.2914L79.5673 29.9036C79.5673 31.5308 78.6974 32.4007 77.2958 32.4007C76.8286 32.3895 76.3754 32.2395 75.9938 31.9698C75.6122 31.7001 75.3196 31.3229 75.1531 30.8863L73.5259 31.563C73.8326 32.3096 74.3553 32.9478 75.0269 33.3955C75.6985 33.8433 76.4885 34.0803 77.2958 34.0762C79.4868 34.0762 81.3395 32.7874 81.3395 29.6458L81.3395 22.0094L79.5673 22.0094L79.5673 22.7022ZM77.4247 28.5825C76.7788 28.5277 76.177 28.2324 75.7384 27.7551C75.2998 27.2777 75.0564 26.6531 75.0564 26.0048C75.0564 25.3566 75.2998 24.7319 75.7384 24.2546C76.177 23.7772 76.7788 23.4819 77.4247 23.4272C77.7461 23.4429 78.061 23.5231 78.3507 23.6631C78.6404 23.8031 78.8989 24 79.1109 24.242C79.3229 24.484 79.4839 24.7663 79.5845 25.0719C79.6851 25.3775 79.7231 25.7003 79.6962 26.0209C79.7214 26.3395 79.682 26.6599 79.5804 26.963C79.4788 27.2661 79.3172 27.5455 79.1052 27.7846C78.8931 28.0238 78.6349 28.2177 78.3463 28.3548C78.0575 28.4919 77.7441 28.5693 77.4247 28.5825ZM101.806 17.4988L97.3345 17.4988L97.3345 30.0002L99.2003 30.0002L99.2003 25.2638L101.806 25.2638C102.333 25.2927 102.862 25.2137 103.358 25.0317C103.854 24.8496 104.308 24.5684 104.692 24.205C105.076 23.8416 105.381 23.4038 105.59 22.9183C105.799 22.4328 105.907 21.9098 105.907 21.3813C105.907 20.8527 105.799 20.3297 105.59 19.8442C105.381 19.3587 105.076 18.9209 104.692 18.5576C104.308 18.1942 103.854 17.9129 103.358 17.7309C102.862 17.5488 102.333 17.4698 101.806 17.4988ZM101.854 23.524L99.2003 23.524L99.2003 19.2387L101.854 19.2387C102.139 19.2328 102.422 19.2838 102.688 19.3889C102.953 19.4939 103.194 19.6508 103.398 19.8503C103.602 20.0498 103.764 20.2881 103.874 20.5509C103.985 20.8138 104.041 21.0962 104.041 21.3813C104.041 21.6665 103.985 21.9488 103.874 22.2117C103.764 22.4746 103.602 22.7128 103.398 22.9124C103.194 23.1119 102.953 23.2688 102.688 23.3738C102.422 23.4788 102.139 23.5299 101.854 23.524ZM113.386 21.7287C112.705 21.6889 112.027 21.8488 111.435 22.1888C110.844 22.5288 110.365 23.0341 110.056 23.6426L111.713 24.3342C111.877 24.0321 112.126 23.7846 112.429 23.6217C112.732 23.4589 113.075 23.3879 113.418 23.4174C113.891 23.3712 114.363 23.5145 114.731 23.816C115.099 24.1175 115.332 24.5525 115.38 25.0257L115.38 25.1544C114.781 24.836 114.112 24.6703 113.434 24.6719C111.649 24.6719 109.831 25.653 109.831 27.4865C109.849 27.8729 109.943 28.2519 110.11 28.601C110.277 28.95 110.512 29.2621 110.801 29.5186C111.091 29.7751 111.429 29.9708 111.795 30.0942C112.162 30.2175 112.55 30.266 112.935 30.2367C113.405 30.2643 113.874 30.1655 114.292 29.9506C114.711 29.7356 115.064 29.4123 115.316 29.0144L115.38 29.0144L115.38 29.9794L117.181 29.9794L117.181 25.1866C117.181 22.9671 115.525 21.7287 113.386 21.7287ZM113.16 28.5801C112.549 28.5801 111.697 28.2746 111.697 27.5186C111.697 26.5537 112.758 26.1837 113.675 26.1837C114.271 26.1678 114.859 26.3123 115.38 26.6019C115.311 27.1441 115.049 27.6432 114.641 28.0069C114.233 28.3705 113.707 28.5741 113.16 28.5801ZM123.743 22.0021L121.604 27.4221L121.54 27.4221L119.32 22.0021L117.31 22.0021L120.639 29.5773L118.741 33.7911L120.687 33.7911L125.818 22.0021L123.743 22.0021ZM106.936 30.0002L108.802 30.0002L108.802 17.4988L106.936 17.4988L106.936 30.0002Z" fill="#FFFFFF" fill-opacity="1.000000" fill-rule="nonzero"/>
		<path id="Vector" d="M10.4353 7.53809C10.1074 7.93015 9.94183 8.43277 9.9725 8.94299L9.9725 31.0591C9.94174 31.5693 10.1073 32.072 10.4353 32.464L10.5093 32.5361L22.8983 20.1472L22.8983 19.8549L10.5093 7.46548L10.4353 7.53809Z" fill="url(#paint_linear_2_266_0)" fill-opacity="1.000000" fill-rule="nonzero"/>
		<path id="Vector" d="M27.0277 24.2786L22.8983 20.1472L22.8983 19.8549L27.0287 15.7245L27.1218 15.7776L32.0146 18.5577C33.4122 19.3517 33.4122 20.6509 32.0146 21.4454L27.1218 24.2255L27.0277 24.2786Z" fill="url(#paint_linear_2_267_0)" fill-opacity="1.000000" fill-rule="nonzero"/>
		<path id="Vector" d="M27.1218 24.225L22.8983 20.0011L10.4353 32.464C10.7201 32.7151 11.0837 32.8588 11.4633 32.87C11.8428 32.8812 12.2143 32.7593 12.5134 32.5254L27.1218 24.225Z" fill="url(#paint_linear_2_268_0)" fill-opacity="1.000000" fill-rule="nonzero"/>
		<path id="Vector" d="M27.1218 15.7771L12.5134 7.47668C12.2143 7.24277 11.8428 7.12088 11.4633 7.13208C11.0837 7.14331 10.7201 7.28693 10.4353 7.53809L22.8983 20.0011L27.1218 15.7771Z" fill="url(#paint_linear_2_269_0)" fill-opacity="1.000000" fill-rule="nonzero"/>
		<g opacity="0.200000">
			<path id="Vector" d="M27.0287 24.132L12.5134 32.3793C12.2258 32.5982 11.8748 32.7177 11.5134 32.7196C11.1519 32.7215 10.7997 32.6058 10.5098 32.39L10.4353 32.4645L10.5093 32.5366L10.5098 32.5361C10.7997 32.752 11.1519 32.8678 11.5134 32.8659C11.8748 32.864 12.2259 32.7444 12.5134 32.5254L27.1218 24.225L27.0287 24.132Z" fill="#000000" fill-opacity="1.000000" fill-rule="nonzero"/>
		</g>
		<g opacity="0.120000">
			<path id="Vector" d="M10.4353 32.3184C10.1074 31.9263 9.94183 31.4237 9.97247 30.9135L9.97247 31.0596C9.9418 31.5698 10.1074 32.0724 10.4353 32.4645L10.5098 32.39L10.4353 32.3184Z" fill="#000000" fill-opacity="1.000000" fill-rule="nonzero"/>
		</g>
		<g opacity="0.120000">
			<path id="Vector" d="M32.0146 21.2988L27.0287 24.132L27.1218 24.225L32.0146 21.4449C32.3024 21.32 32.5515 21.1202 32.7358 20.8663C32.9202 20.6125 33.0331 20.3138 33.0629 20.0015C33.001 20.2843 32.8741 20.5489 32.6921 20.7741C32.5101 20.9993 32.2781 21.1789 32.0146 21.2988Z" fill="#000000" fill-opacity="1.000000" fill-rule="nonzero"/>
		</g>
		<g opacity="0.250000">
			<path id="Vector" d="M12.5134 7.62329L32.0146 18.7033C32.2782 18.8231 32.5103 19.0029 32.6923 19.2281C32.8743 19.4535 33.0012 19.7181 33.0629 20.0011C33.0333 19.6886 32.9205 19.3898 32.7361 19.1358C32.5517 18.8819 32.3025 18.682 32.0146 18.5572L12.5134 7.47717C11.1158 6.68307 9.97247 7.34268 9.97247 8.94348L9.97247 9.08957C9.97247 7.48889 11.1158 6.82928 12.5134 7.62329Z" fill="#FFFFFF" fill-opacity="1.000000" fill-rule="nonzero"/>
		</g>
	</g>
</svg>
