<svg width="34.000000" height="34.000000" viewBox="0 0 34 34" fill="none" xmlns="http://www.w3.org/2000/svg" xmlns:xlink="http://www.w3.org/1999/xlink">
	<desc>
			Created with Pixso.
	</desc>
	<defs/>
	<rect id="Social Icons / White / Youtube" width="34.000000" height="34.000000" fill="#FFFFFF" fill-opacity="0"/>
	<g opacity="0.100000">
		<path id="BG" d="M0 17C0 7.61115 7.61115 0 17 0C26.3889 0 34 7.61115 34 17C34 26.3889 26.3889 34 17 34C7.61115 34 0 26.3889 0 17Z" fill="#FFFFFF" fill-opacity="1.000000" fill-rule="evenodd"/>
	</g>
	<path id="Path" d="M24.0845 11.1558C24.8647 11.3699 25.4792 12.0008 25.6877 12.8019C26.0667 14.2539 26.0667 17.2834 26.0667 17.2834C26.0667 17.2834 26.0667 20.3128 25.6877 21.7648C25.4792 22.566 24.8647 23.1968 24.0845 23.4111C22.6705 23.8 17 23.8 17 23.8C17 23.8 11.3295 23.8 9.91547 23.4111C9.13519 23.1968 8.52075 22.566 8.31219 21.7648C7.93335 20.3128 7.93335 17.2834 7.93335 17.2834C7.93335 17.2834 7.93335 14.2539 8.31219 12.8019C8.52075 12.0008 9.13519 11.3699 9.91547 11.1558C11.3295 10.7667 17 10.7667 17 10.7667C17 10.7667 22.6705 10.7667 24.0845 11.1558ZM15.3 14.7333L15.3 20.4L19.8334 17.5668L15.3 14.7333Z" fill="#FFFFFF" fill-opacity="1.000000" fill-rule="evenodd"/>
</svg>
