<svg width="34.000000" height="34.000000" viewBox="0 0 34 34" fill="none" xmlns="http://www.w3.org/2000/svg" xmlns:xlink="http://www.w3.org/1999/xlink">
	<desc>
			Created with Pixso.
	</desc>
	<defs/>
	<rect id="Social Icons / White / Twitter" width="34.000000" height="34.000000" fill="#FFFFFF" fill-opacity="0"/>
	<g opacity="0.100000">
		<path id="BG" d="M0 17C0 7.61115 7.61115 0 17 0C26.3889 0 34 7.61115 34 17C34 26.3889 26.3889 34 17 34C7.61115 34 0 26.3889 0 17Z" fill="#FFFFFF" fill-opacity="1.000000" fill-rule="evenodd"/>
	</g>
	<path id="Path" d="M16.4908 13.8178L16.5266 14.4061L15.9319 14.334C13.7678 14.0579 11.8771 13.1215 10.2718 11.5489L9.48694 10.7686L9.28479 11.3448C8.85675 12.6293 9.13025 13.9859 10.0221 14.8983C10.4977 15.4025 10.3907 15.4745 9.57019 15.1744C9.28479 15.0783 9.0351 15.0063 9.01129 15.0423C8.9281 15.1263 9.21344 16.2188 9.43939 16.651C9.7486 17.2512 10.3788 17.8395 11.0685 18.1876L11.6512 18.4637L10.9615 18.4757C10.2956 18.4757 10.2718 18.4877 10.3431 18.7398C10.5809 19.5201 11.5203 20.3484 12.5668 20.7086L13.304 20.9607L12.6619 21.3448C11.7106 21.8971 10.5928 22.2092 9.4751 22.2332C8.94 22.2452 8.5 22.2933 8.5 22.3293C8.5 22.4493 9.95074 23.1216 10.795 23.3857C13.3278 24.166 16.3362 23.8299 18.5956 22.4973C20.2009 21.549 21.8062 19.6642 22.5554 17.8395C22.9597 16.8671 23.364 15.0903 23.364 14.238C23.364 13.6858 23.3996 13.6138 24.0655 12.9535C24.4579 12.5693 24.8265 12.1492 24.8979 12.0291C25.0168 11.801 25.0049 11.801 24.3984 12.0051C23.3877 12.3652 23.245 12.3172 23.7444 11.777C24.1131 11.3928 24.553 10.6965 24.553 10.4925C24.553 10.4565 24.3747 10.5165 24.1725 10.6245C23.9585 10.7446 23.4828 10.9247 23.1261 11.0327L22.484 11.2368L21.9013 10.8406C21.5803 10.6245 21.1284 10.3845 20.8906 10.3124C20.2841 10.1443 19.3566 10.1683 18.8096 10.3604C17.3232 10.9006 16.3839 12.2932 16.4908 13.8178Z" fill="#FFFFFF" fill-opacity="1.000000" fill-rule="evenodd"/>
</svg>
