<svg width="34.000000" height="34.000000" viewBox="0 0 34 34" fill="none" xmlns="http://www.w3.org/2000/svg" xmlns:xlink="http://www.w3.org/1999/xlink">
	<desc>
			Created with Pixso.
	</desc>
	<defs/>
	<rect id="Social Icons / White / Instagram" width="34.000000" height="34.000000" fill="#FFFFFF" fill-opacity="0"/>
	<g opacity="0.100000">
		<path id="BG" d="M0 17C0 7.61115 7.61115 0 17 0C26.3889 0 34 7.61115 34 17C34 26.3889 26.3889 34 17 34C7.61115 34 0 26.3889 0 17Z" fill="#FFFFFF" fill-opacity="1.000000" fill-rule="evenodd"/>
	</g>
	<path id="Path" d="M17.0009 7.93335C14.5385 7.93335 14.2294 7.94409 13.2623 7.9881C12.2971 8.03235 11.6382 8.18512 11.0618 8.40936C10.4655 8.64093 9.95959 8.95074 9.45563 9.4549C8.95129 9.9588 8.64148 10.4647 8.40918 11.0608C8.18439 11.6375 8.03137 12.2966 7.98792 13.2614C7.9447 14.2285 7.93335 14.5377 7.93335 17.0001C7.93335 19.4625 7.94427 19.7706 7.9881 20.7377C8.03253 21.7029 8.1853 22.3618 8.40936 22.9383C8.64111 23.5346 8.95093 24.0405 9.45508 24.5444C9.9588 25.0488 10.4647 25.3593 11.0606 25.5909C11.6375 25.8151 12.2966 25.9679 13.2616 26.0121C14.2287 26.0561 14.5375 26.0669 16.9998 26.0669C19.4623 26.0669 19.7704 26.0561 20.7375 26.0121C21.7028 25.9679 22.3624 25.8151 22.9392 25.5909C23.5353 25.3593 24.0405 25.0488 24.5443 24.5444C25.0486 24.0405 25.3583 23.5346 25.5907 22.9385C25.8136 22.3618 25.9666 21.7028 26.0119 20.7379C26.0554 19.7708 26.0667 19.4625 26.0667 17.0001C26.0667 14.5377 26.0554 14.2287 26.0119 13.2616C25.9666 12.2963 25.8136 11.6375 25.5907 11.061C25.3583 10.4647 25.0486 9.9588 24.5443 9.4549C24.0399 8.9505 23.5355 8.64075 22.9387 8.40936C22.3607 8.18512 21.7014 8.03235 20.7362 7.9881C19.769 7.94409 19.4612 7.93335 16.998 7.93335L17.0009 7.93335ZM16.1874 9.5672C16.4289 9.56683 16.6982 9.5672 17.0009 9.5672C19.4216 9.5672 19.7086 9.57593 20.6646 9.61938C21.5486 9.65979 22.0283 9.8075 22.348 9.93158C22.7711 10.0959 23.0728 10.2924 23.3899 10.6097C23.7072 10.9271 23.9036 11.2293 24.0684 11.6524C24.1924 11.9716 24.3404 12.4514 24.3806 13.3354C24.4241 14.2912 24.4335 14.5783 24.4335 16.998C24.4335 19.4177 24.4241 19.7048 24.3806 20.6606C24.3402 21.5446 24.1924 22.0244 24.0684 22.3436C23.9041 22.7667 23.7072 23.068 23.3899 23.3852C23.0725 23.7025 22.7712 23.8989 22.348 24.0633C22.0287 24.1879 21.5486 24.3353 20.6646 24.3757C19.7087 24.4191 19.4216 24.4286 17.0009 24.4286C14.5798 24.4286 14.2929 24.4191 13.3371 24.3757C12.4531 24.3349 11.9733 24.1872 11.6535 24.0631C11.2304 23.8987 10.9282 23.7023 10.6108 23.3849C10.2935 23.0676 10.097 22.7662 9.93237 22.3429C9.80823 22.0236 9.66034 21.5439 9.62012 20.6599C9.57666 19.704 9.56799 19.4169 9.56799 16.9957C9.56799 14.5745 9.57666 14.2889 9.62012 13.3331C9.66052 12.4492 9.80823 11.9694 9.93237 11.6498C10.0967 11.2266 10.2935 10.9244 10.6108 10.6071C10.9282 10.2897 11.2304 10.0933 11.6535 9.92859C11.9731 9.80389 12.4531 9.65656 13.3371 9.61597C14.1735 9.57819 14.4976 9.56683 16.1874 9.56494L16.1874 9.5672ZM21.8406 11.0727C21.2399 11.0727 20.7526 11.5594 20.7526 12.1603C20.7526 12.761 21.2399 13.2484 21.8406 13.2484C22.4413 13.2484 22.9286 12.761 22.9286 12.1603C22.9286 11.5596 22.4413 11.0727 21.8406 11.0727ZM17.0009 12.3439C14.4295 12.3439 12.3447 14.4287 12.3447 17.0001C12.3447 19.5715 14.4295 21.6553 17.0009 21.6553C19.5723 21.6553 21.6563 19.5715 21.6563 17.0001C21.6563 14.4287 19.5723 12.3439 17.0009 12.3439ZM17.0009 13.9778C18.6699 13.9778 20.0231 15.3309 20.0231 17.0001C20.0231 18.6691 18.6699 20.0223 17.0009 20.0223C15.3316 20.0223 13.9786 18.6691 13.9786 17.0001C13.9786 15.3309 15.3316 13.9778 17.0009 13.9778Z" fill="#FFFFFF" fill-opacity="1.000000" fill-rule="evenodd"/>
</svg>
